<?xml version="1.0" encoding="utf-8"?><svg version="1.1" id="Layer_1" xmlns="http://www.w3.org/2000/svg" xmlns:xlink="http://www.w3.org/1999/xlink" x="0px" y="0px" viewBox="0 0 102.54 122.88" style="enable-background:new 0 0 102.54 122.88" xml:space="preserve"><style type="text/css"><![CDATA[
	.st0{fill-rule:evenodd;clip-rule:evenodd;}
]]></style><g><path class="st0" d="M76.29,21.12c-1.63,1.12-2.66,2.79-3,4.58c-0.34,1.8,0.01,3.73,1.13,5.36c0.29,0.42,0.61,0.8,0.97,1.14 c2,0.23,4.46-0.81,6.61-2.36c2.23-1.61,4.1-3.74,4.82-5.61c0.02-0.04,0.03-0.08,0.04-0.12c-0.17-0.38-0.38-0.76-0.63-1.12 c-1.12-1.63-2.79-2.66-4.58-3C79.85,19.66,77.92,20,76.29,21.12L76.29,21.12L76.29,21.12z M35.5,33.1c0.54-0.32,1.1-0.55,1.68-0.71 l0.04-0.22l0.09,0h0.01l0.89,0.02c0.71-0.08,1.43-0.04,2.12,0.11c1.66,0.11,3.34,0.26,4.83,0.4c1.12,0.1,2.13,0.2,3,0.26 c11.75,0.77,17.26,6.95,21.53,11.76c1.88,2.13,3.53,3.96,5.29,4.8c0.83,0.39,2.14-0.16,3.63-0.79c0.9-0.38,1.85-0.79,2.86-1.05 c0.65-0.24,1.01-0.38,1.28-0.49c0.36-0.14,0.6-0.23,0.74-0.28L88.34,45c-2.34-2.49-5.58-6.31-7.75-8.87 c-0.75-0.88-1.37-1.61-1.8-2.11c-0.64-0.14-1.25-0.37-1.83-0.68c1.89-0.33,3.91-1.31,5.71-2.61c1.95-1.41,3.67-3.2,4.71-4.95 c0.13,0.75,0.14,1.5,0.04,2.24c0.36,0.68,0.88,1.63,1.5,2.77c1.93,3.53,4.78,8.76,6.01,11.71c1.26-0.21,2.64,0.12,3.87,0.85 c1.03,0.61,1.98,1.52,2.66,2.61c0.68,1.11,1.1,2.43,1.09,3.89c-0.01,2.09-0.94,4.43-3.26,6.74c-0.1,0.1-0.22,0.17-0.35,0.21 l-10.71,4.24l0,0l-0.99,0.35c-5.74,2.04-9.89,3.5-17.16,1.71c-0.06-0.01-0.1-0.04-0.15-0.06c-5.09-1.98-7.73-4.72-10.29-7.4 l-0.38-0.39l-3.25,14.91c2.9,1.83,5.81,3.18,8.55,4.46c8.33,3.89,15.17,7.08,16.64,20.16c0.32,2.83,0.08,5.77-0.07,8.62l0.92,18.56 c-0.02,0.5-0.44,0.88-0.93,0.87l-12.87,0.04c-0.5,0-0.9-0.41-0.9-0.9c0.14-8.73-1.54-11.1-1.09-19.82c0.15-2.62,0.51-5.75-0.6-8.17 l-0.13-0.27c-0.52-1.13-1-2.17-1.71-2.51c-1.42-0.66-3.68-1.48-6.24-2.32c-2.94-0.97-6.22-1.94-9.11-2.76l-14.57,36.21 c-0.16,0.32-0.51,0.51-0.84,0.49l-13.52,0.07c-0.5,0-0.9-0.39-0.9-0.89c0-0.12,6.58-16.14,7.42-18.55 c3.13-8.99,4.85-16.25,7.07-23.61c-1.32-1.62-2.58-3.42-3.43-5.41c-0.95-2.2-1.41-4.58-0.94-7.14l4.8-17.32l-9.02,5.37 c-2.23,1.32-4.9,1.21-6.97-0.05l-0.02,0.03L3.23,46.51C0.04,44.56-0.95,40.39,1,37.2c1.96-3.19,6.13-4.18,9.31-2.22l10.84,6.67 L35.5,33.1L35.5,33.1z M96.06,15.64l0.61,0.24l-0.08,0.2c1.38,0.95,1.27,1.76-0.07,2.56c0.55-1.11,0.53-1.4-0.24-1.77l-1.15,2.89 c0,0.02-0.01,0.03-0.01,0.05c-0.15,0.38-0.69,0.59-1.21,0.48c-0.52-0.11-0.82-0.5-0.67-0.88c0.2-0.51,1.08-0.68,1.47-0.34 L96.06,15.64L96.06,15.64L96.06,15.64z M82.82,14.17c0.24,0.05,0.45,0.14,0.62,0.26l1.75-4.39l-5.18-0.51l-2.03,5.1 c-0.01,0.03-0.02,0.06-0.03,0.09l0,0c-0.27,0.69-1.26,1.08-2.21,0.88c-0.95-0.2-1.5-0.92-1.22-1.61c0.27-0.69,1.27-1.08,2.21-0.88 c0.36,0.07,0.66,0.23,0.88,0.42l2.5-6.28l0.04,0.02l6.56,1.01l-2.81,7.07c-0.01,0.06-0.03,0.11-0.05,0.16l0,0 c-0.23,0.57-1.06,0.91-1.85,0.74c-0.79-0.17-1.25-0.77-1.02-1.34C81.19,14.33,82.02,14,82.82,14.17L82.82,14.17L82.82,14.17 L82.82,14.17z M89.74,44.44l3.88-1.54c-1.92-4.55-4.42-8.58-6.78-12.92c-0.5,1.3-1.24,2.1-2.48,2.94 c-1.22,0.83-1.96,1.21-3.33,1.23C83.98,37.64,86.61,41.13,89.74,44.44L89.74,44.44z M70.21,33.14c-0.83-0.16-1.63,0.39-1.79,1.22 c-0.16,0.83,0.39,1.63,1.22,1.79c0.83,0.16,1.63-0.39,1.79-1.22S71.04,33.3,70.21,33.14L70.21,33.14L70.21,33.14z M49.11,0.76 c3.68-1.26,7.53-0.9,10.77,0.68c3.24,1.58,5.88,4.42,7.14,8.1c1.26,3.68,0.9,7.53-0.68,10.77c-1.58,3.24-4.42,5.88-8.1,7.14 c-3.68,1.26-7.53,0.9-10.77-0.68c-3.24-1.58-5.88-4.42-7.14-8.1c-1.26-3.68-0.9-7.53,0.68-10.77C42.59,4.66,45.42,2.02,49.11,0.76 L49.11,0.76L49.11,0.76z"/></g></svg>