<svg width="190" height="57" viewBox="0 0 190 57" fill="none" xmlns="http://www.w3.org/2000/svg">
<path d="M1.82233 28.6676C1.82233 44.0911 14.5224 56.8323 29.8962 56.8323C45.27 56.8323 57.9701 44.0911 57.9701 28.6676C57.9701 13.2441 45.27 0.670532 29.8962 0.670532C14.5224 0.670532 1.82233 13.2441 1.82233 28.6676ZM40.2568 41.7441C33.7397 37.7205 25.3843 36.7146 15.6922 38.8941C13.3527 39.2294 13.0185 35.8764 15.0237 35.5411C25.7185 33.0264 34.7423 34.1999 42.095 38.7264C43.9331 39.8999 42.095 42.7499 40.2568 41.7441ZM43.0976 34.1999C35.5778 29.5058 24.0475 28.1646 15.1908 30.847C12.35 31.6852 11.3474 27.3264 14.0211 26.6558C24.2146 23.6382 36.7476 25.147 45.4371 30.5117C47.7766 32.0205 45.4371 35.7088 43.0976 34.1999ZM13.854 22.297C11.0132 23.3029 9.17501 18.4411 12.35 17.2676C22.2093 14.2499 38.92 14.7529 49.2806 20.9558C52.1214 22.4646 49.4477 27.1588 46.4397 25.4823C37.416 20.1176 22.3764 19.6146 13.854 22.297ZM77.1873 37.5529C74.3465 37.5529 71.6728 36.547 69.3333 34.1999C69.1662 34.1999 69.1662 34.3676 69.1662 34.3676L66.4925 37.5529C66.3254 37.7205 66.3254 37.8882 66.4925 38.0558C69.5004 40.7382 73.1768 42.0794 77.1873 42.0794C82.869 42.0794 86.3782 38.8941 86.3782 34.1999C86.3782 30.1764 83.8716 27.997 78.0229 26.4882C73.1768 25.3146 72.3412 24.4764 72.3412 22.7999C72.3412 21.1235 74.0123 20.1176 76.1847 20.1176C78.3571 20.1176 80.3624 20.9558 82.7018 22.6323C82.7018 22.6323 82.869 22.7999 83.0361 22.7999C83.2032 22.7999 83.2032 22.6323 83.2032 22.6323L85.5426 19.2794C85.7098 19.1117 85.7098 19.1117 85.5426 18.9441C82.8689 16.7646 79.6939 15.5911 76.1847 15.5911C71.0044 15.5911 67.328 18.7764 67.328 23.3029C67.328 28.1646 70.6702 29.6735 76.0176 31.0146C80.6966 32.0205 81.365 33.0264 81.365 34.7029C81.365 36.547 79.6939 37.5529 77.1873 37.5529ZM93.0624 24.6441V22.4646C93.0624 22.297 92.8953 22.1294 92.7282 22.1294H88.3835C88.2164 22.1294 88.0492 22.297 88.0492 22.4646V47.1088C88.0492 47.2764 88.2164 47.4441 88.3835 47.4441H92.7282C92.8953 47.4441 93.0624 47.2764 93.0624 47.1088V39.397C94.7335 41.2411 96.5717 42.0794 99.0783 42.0794C103.59 42.0794 108.102 38.5588 108.102 31.8529C108.102 25.147 103.59 21.7941 99.0783 21.7941C96.5717 21.7941 94.7335 22.6323 93.0624 24.6441ZM98.0756 37.7205C95.0677 37.7205 92.8953 35.2058 92.8953 31.8529C92.8953 28.4999 95.0677 26.1529 98.0756 26.1529C101.084 26.1529 103.089 28.4999 103.089 31.8529C103.089 35.2058 101.084 37.7205 98.0756 37.7205ZM109.439 32.0205C109.439 37.7205 113.951 42.0794 119.799 42.0794C125.648 42.0794 130.16 37.5529 130.16 31.8529C130.16 26.1529 125.815 21.7941 119.967 21.7941C114.118 21.7941 109.439 26.3205 109.439 32.0205ZM114.452 31.8529C114.452 28.4999 116.624 26.1529 119.799 26.1529C122.974 26.1529 125.314 28.6676 125.314 32.0205C125.314 35.3735 123.142 37.7205 119.967 37.7205C116.792 37.7205 114.452 35.2058 114.452 31.8529ZM137.847 22.1294V17.2676C137.847 17.0999 137.847 16.9323 137.68 16.9323H133.335C133.168 16.9323 133.001 17.0999 133.001 17.2676V22.1294H130.828C130.661 22.1294 130.494 22.297 130.494 22.4646V26.1529C130.494 26.3205 130.661 26.4882 130.828 26.4882H133.001V36.2117C133.001 40.0676 134.839 42.0794 138.682 42.0794C140.186 42.0794 141.69 41.7441 142.86 41.0735C143.027 41.0735 143.027 40.9058 143.027 40.7382V37.2176C143.027 37.0499 143.027 36.8823 142.86 36.8823H142.526C141.69 37.3852 140.688 37.5529 139.852 37.5529C138.515 37.5529 137.847 36.8823 137.847 35.5411V26.4882H142.86C143.027 26.4882 143.194 26.3205 143.194 26.1529V22.4646C143.194 22.297 143.027 22.1294 142.86 22.1294H137.847ZM159.404 21.6264C159.404 19.7823 160.072 19.1117 161.576 19.1117C162.412 19.1117 163.247 19.1117 164.083 19.447H164.25C164.25 19.447 164.417 19.2794 164.417 19.1117V15.5911C164.417 15.4235 164.417 15.2558 164.25 15.2558C163.414 14.9205 162.245 14.7529 160.573 14.7529C156.563 14.7529 154.558 17.0999 154.558 21.2911V22.1294H152.385C152.218 22.1294 152.051 22.297 152.051 22.4646V26.1529C152.051 26.3205 152.218 26.4882 152.385 26.4882H154.558V41.4088C154.558 41.5764 154.725 41.7441 154.892 41.7441H159.237C159.404 41.7441 159.404 41.5764 159.404 41.4088V26.4882H163.581L169.764 41.4088C169.096 42.9176 168.427 43.2529 167.425 43.2529C166.589 43.2529 165.754 43.0852 164.918 42.5823H164.751L164.584 42.7499L163.08 45.9352C163.08 46.1029 163.08 46.4382 163.247 46.4382C164.751 47.2764 166.088 47.6117 167.759 47.6117C170.934 47.6117 172.772 46.1029 174.276 42.0794L181.796 22.6323V22.297C181.796 22.1294 181.629 22.1294 181.462 22.1294H176.95C176.783 22.1294 176.783 22.297 176.783 22.4646L172.104 35.5411L167.091 22.4646C167.091 22.297 166.923 22.1294 166.756 22.1294H159.404V21.6264ZM145.534 22.1294C145.367 22.1294 145.2 22.297 145.2 22.4646V41.4088C145.2 41.5764 145.367 41.7441 145.534 41.7441H149.879C150.046 41.7441 150.046 41.5764 150.046 41.4088V22.4646C150.046 22.297 150.046 22.1294 149.879 22.1294H145.534ZM144.531 16.597C144.531 18.2735 146.035 19.7823 147.706 19.7823C149.377 19.7823 150.714 18.2735 150.714 16.597C150.714 14.9205 149.377 13.5794 147.706 13.5794C146.035 13.5794 144.531 14.9205 144.531 16.597ZM185.472 28.1646C187.143 28.1646 188.647 26.8235 188.647 25.147C188.647 23.4705 187.143 22.1294 185.472 22.1294C183.801 22.1294 182.464 23.4705 182.464 25.147C182.464 26.8235 183.801 28.1646 185.472 28.1646ZM185.472 22.4646C186.976 22.4646 188.313 23.6382 188.313 25.147C188.313 26.6558 186.976 27.8294 185.472 27.8294C183.968 27.8294 182.799 26.6558 182.799 25.147C182.799 23.6382 183.968 22.4646 185.472 22.4646ZM186.141 25.4823C186.642 25.3146 186.976 24.9794 186.976 24.4764C186.976 23.8058 186.308 23.4705 185.639 23.4705H184.303V26.6558H184.971V25.6499H185.639L186.308 26.6558H187.143L186.141 25.4823ZM185.639 23.9735C185.974 23.9735 186.308 24.1411 186.308 24.4764C186.308 24.8117 185.974 24.9794 185.639 24.9794H184.971V23.9735H185.639Z" fill="#444444"/>
</svg>
