<?xml version="1.0" encoding="iso-8859-1"?>
<svg version="1.1" id="Layer_1" xmlns="http://www.w3.org/2000/svg" xmlns:xlink="http://www.w3.org/1999/xlink" x="0px" y="0px" fill="white"
	 viewBox="0 0 512 512" style="enable-background:new 0 0 512 512;" xml:space="preserve">
<g>
	<g>
		<g>
			<path d="M228.393,134.448c-28.565-28.564-74.877-28.563-103.442,0c-28.565-28.565-74.877-28.564-103.441,0
				c-28.565,28.565-28.565,74.877,0,103.442l103.441,103.44l103.442-103.44C256.957,209.325,256.958,163.013,228.393,134.448z"/>
			<path d="M304.674,401.037c-13.824-6.89-30.627-10.943-48.763-10.943c-47.129,0-85.334,27.29-85.334,60.953
				S208.782,512,255.911,512s85.334-27.29,85.334-60.953V158.472h-36.572V401.037z"/>
			<path d="M341.245,0h-36.572v121.9h36.572c97.525,0,121.906,96.306,121.906,169.45c30.885-30.885,48.762-73.552,48.762-120.681
				C511.914,76.411,435.503,0,341.245,0z"/>
		</g>
	</g>
</g>
<g>
</g>
<g>
</g>
<g>
</g>
<g>
</g>
<g>
</g>
<g>
</g>
<g>
</g>
<g>
</g>
<g>
</g>
<g>
</g>
<g>
</g>
<g>
</g>
<g>
</g>
<g>
</g>
<g>
</g>
</svg>
