<?xml version="1.0" encoding="iso-8859-1"?>
<!-- Generator: Adobe Illustrator 19.0.0, SVG Export Plug-In . SVG Version: 6.00 Build 0)  -->
<svg version="1.1" id="Layer_1" xmlns="http://www.w3.org/2000/svg" xmlns:xlink="http://www.w3.org/1999/xlink" x="0px" y="0px"
	 viewBox="0 0 288.035 288.035" style="enable-background:new 0 0 288.035 288.035;" xml:space="preserve">
<g>
	<g>
		<g>
			<path style="fill:#4EFFBB;" d="M152.246,16.46c-50.734,0-91.978,41.244-91.978,91.978c0,27.807,12.394,52.709,31.952,69.595
				v102.241c0,3.059,1.743,5.809,4.532,7.047c2.75,1.277,5.965,0.814,8.288-1.163l48.952-42.293l45.274,42.097
				c1.433,1.355,3.33,2.053,5.268,2.053c1.046,0,2.092-0.192,3.098-0.619c2.828-1.238,4.646-4.027,4.646-7.125V178.033
				c19.519-16.886,31.952-41.788,31.952-69.595C244.224,57.704,202.941,16.46,152.246,16.46z"/>
		</g>
		<g>
			<g id="XMLID_6_">
				<g>
					<g>
						<path style="fill:#8d85ba;" d="M180.324,172.417v73.622l-37.335-34.699c-2.906-2.711-7.36-2.789-10.341-0.192l-41.4,35.744
							v-74.476c13.205,7.36,28.387,11.54,44.538,11.54C151.936,183.96,167.119,179.776,180.324,172.417z"/>
					</g>
					<g>
						<path style="fill:#8d85ba;" d="M135.786,35.822c30.945,0,56.156,25.175,56.156,56.156c0,30.945-25.211,56.156-56.156,56.156
							c-30.984,0-56.156-25.211-56.156-56.156C79.63,60.997,104.805,35.822,135.786,35.822z M144.889,119.089V60.417l-25.058,2.092
							v10.224h11.657v46.359h13.4v-0.003H144.889z"/>
					</g>
					<g>
						<path style="fill:#655ba2;" d="M227.767,91.978c0,27.807-12.433,52.709-31.952,69.595v102.241
							c0,3.098-1.821,5.887-4.646,7.125c-1.007,0.427-2.053,0.619-3.098,0.619c-1.935,0-3.835-0.697-5.268-2.053l-45.274-42.094
							l-48.952,42.29c-2.323,1.974-5.539,2.44-8.288,1.163c-2.789-1.238-4.532-3.988-4.532-7.047V161.574
							c-19.558-16.886-31.952-41.788-31.952-69.595C43.808,41.244,85.054,0,135.786,0C186.481,0,227.767,41.244,227.767,91.978z
							 M212.275,91.978c0-42.176-34.314-76.489-76.489-76.489S59.3,49.806,59.3,91.978c0,42.175,34.314,76.486,76.489,76.486
							S212.275,134.154,212.275,91.978z M180.324,246.039v-73.622c-13.205,7.36-28.387,11.54-44.538,11.54
							s-31.333-4.183-44.538-11.54v74.476l41.4-35.747c2.981-2.594,7.435-2.518,10.341,0.192L180.324,246.039z"/>
					</g>
					<g>
						<path style="fill:#655ba2;" d="M135.786,20.333c39.504,0,71.648,32.144,71.648,71.648s-32.144,71.648-71.648,71.648
							s-71.645-32.147-71.645-71.651C64.141,52.477,96.285,20.333,135.786,20.333z M191.942,91.978
							c0-30.981-25.211-56.156-56.156-56.156c-30.984,0-56.156,25.175-56.156,56.156c0,30.945,25.172,56.156,56.156,56.156
							C166.731,148.134,191.942,122.923,191.942,91.978z"/>
					</g>
				</g>
			</g>
		</g>
	</g>
</g>
<g>
</g>
<g>
</g>
<g>
</g>
<g>
</g>
<g>
</g>
<g>
</g>
<g>
</g>
<g>
</g>
<g>
</g>
<g>
</g>
<g>
</g>
<g>
</g>
<g>
</g>
<g>
</g>
<g>
</g>
</svg>
