<?xml version="1.0" encoding="UTF-8"?>
<svg width="16px" height="12px" viewBox="0 0 16 12" version="1.1" xmlns="http://www.w3.org/2000/svg" xmlns:xlink="http://www.w3.org/1999/xlink">
    <title>flags/S/US - United States</title>
    <defs>
        <rect id="path-1" x="0" y="0" width="16" height="12"></rect>
    </defs>
    <g id="Symbols" stroke="none" stroke-width="1" fill="none" fill-rule="evenodd">
        <g id="flag">
            <mask id="mask-2" fill="white">
                <use xlink:href="#path-1"></use>
            </mask>
            <g id="mask"></g>
            <polygon id="middle" fill="#E31D1C" mask="url(#mask-2)" points="0 0 16 0 16 12 0 12"></polygon>
            <path d="M16,11 L16,12 L0,12 L0,11 L16,11 Z M16,9 L16,10 L0,10 L0,9 L16,9 Z M16,7 L16,8 L0,8 L0,7 L16,7 Z M16,5 L16,6 L0,6 L0,5 L16,5 Z M16,3 L16,4 L0,4 L0,3 L16,3 Z M16,1 L16,2 L0,2 L0,1 L16,1 Z" id="Combined-Shape" fill="#F7FCFF" mask="url(#mask-2)"></path>
            <rect id="Rectangle-82" fill="#2E42A5" mask="url(#mask-2)" x="0" y="0" width="9" height="7"></rect>
            <path d="M7.56919529,0.564483697 L7.81096317,1.10057986 L8.33502628,1.10057986 L7.92325766,1.51687748 L8.08267008,2.17377833 L7.56993589,1.80464732 L7.14425429,2.1004837 L7.33502628,2.10057986 L6.92325766,2.51687748 L7.06425429,3.1004837 L7.3630109,3.10057986 L7.56919529,2.5644837 L7.81096317,3.10057986 L8.33502628,3.10057986 L7.92325766,3.51687748 L8.08267008,4.17377833 L7.56993589,3.80464732 L7.14425429,4.1004837 L7.33502628,4.10057986 L6.92325766,4.51687748 L7.06425429,5.1004837 L7.3630109,5.10057986 L7.56919529,4.5644837 L7.81096317,5.10057986 L8.33502628,5.10057986 L7.92325766,5.51687748 L8.08267008,6.17377833 L7.56993589,5.80464732 L7.04001552,6.17377833 L7.21892249,5.51687748 L6.74825429,5.10057986 L6.98125429,5.1004837 L6.56993589,4.80464732 L6.14425429,5.1004837 L6.33502628,5.10057986 L5.92325766,5.51687748 L6.08267008,6.17377833 L5.56993589,5.80464732 L5.04001552,6.17377833 L5.21892249,5.51687748 L4.74825429,5.10057986 L4.98125429,5.1004837 L4.56993589,4.80464732 L4.14425429,5.1004837 L4.33502628,5.10057986 L3.92325766,5.51687748 L4.08267008,6.17377833 L3.56993589,5.80464732 L3.04001552,6.17377833 L3.21892249,5.51687748 L2.74825429,5.10057986 L2.98125429,5.1004837 L2.56993589,4.80464732 L2.14425429,5.1004837 L2.33502628,5.10057986 L1.92325766,5.51687748 L2.08267008,6.17377833 L1.56993589,5.80464732 L1.04001552,6.17377833 L1.21892249,5.51687748 L0.74825429,5.10057986 L1.3630109,5.10057986 L1.56919529,4.5644837 L1.81096317,5.10057986 L2.05925429,5.1004837 L2.21892249,4.51687748 L1.74825429,4.10057986 L1.98125429,4.1004837 L1.56993589,3.80464732 L1.04001552,4.17377833 L1.21892249,3.51687748 L0.74825429,3.10057986 L1.3630109,3.10057986 L1.56919529,2.5644837 L1.81096317,3.10057986 L2.05925429,3.1004837 L2.21892249,2.51687748 L1.74825429,2.10057986 L1.98125429,2.1004837 L1.56993589,1.80464732 L1.04001552,2.17377833 L1.21892249,1.51687748 L0.74825429,1.10057986 L1.3630109,1.10057986 L1.56919529,0.564483697 L1.81096317,1.10057986 L2.33502628,1.10057986 L1.92325766,1.51687748 L2.06425429,2.1004837 L2.3630109,2.10057986 L2.56919529,1.5644837 L2.81096317,2.10057986 L3.05925429,2.1004837 L3.21892249,1.51687748 L2.74825429,1.10057986 L3.3630109,1.10057986 L3.56919529,0.564483697 L3.81096317,1.10057986 L4.33502628,1.10057986 L3.92325766,1.51687748 L4.06425429,2.1004837 L4.3630109,2.10057986 L4.56919529,1.5644837 L4.81096317,2.10057986 L5.05925429,2.1004837 L5.21892249,1.51687748 L4.74825429,1.10057986 L5.3630109,1.10057986 L5.56919529,0.564483697 L5.81096317,1.10057986 L6.33502628,1.10057986 L5.92325766,1.51687748 L6.06425429,2.1004837 L6.3630109,2.10057986 L6.56919529,1.5644837 L6.81096317,2.10057986 L7.05925429,2.1004837 L7.21892249,1.51687748 L6.74825429,1.10057986 L7.3630109,1.10057986 L7.56919529,0.564483697 Z M5.98125429,4.1004837 L5.56993589,3.80464732 L5.14425429,4.1004837 L5.33502628,4.10057986 L4.92325766,4.51687748 L5.06425429,5.1004837 L5.3630109,5.10057986 L5.56919529,4.5644837 L5.81096317,5.10057986 L6.05925429,5.1004837 L6.21892249,4.51687748 L5.74825429,4.10057986 L5.98125429,4.1004837 Z M3.56993589,3.80464732 L3.14425429,4.1004837 L3.33502628,4.10057986 L2.92325766,4.51687748 L3.06425429,5.1004837 L3.3630109,5.10057986 L3.56919529,4.5644837 L3.81096317,5.10057986 L4.05925429,5.1004837 L4.21892249,4.51687748 L3.74825429,4.10057986 L3.98125429,4.1004837 L3.56993589,3.80464732 Z M6.98125429,3.1004837 L6.56993589,2.80464732 L6.14425429,3.1004837 L6.33502628,3.10057986 L5.92325766,3.51687748 L6.06425429,4.1004837 L6.3630109,4.10057986 L6.56919529,3.5644837 L6.81096317,4.10057986 L7.05925429,4.1004837 L7.21892249,3.51687748 L6.74825429,3.10057986 L6.98125429,3.1004837 Z M2.56993589,2.80464732 L2.14425429,3.1004837 L2.33502628,3.10057986 L1.92325766,3.51687748 L2.06425429,4.1004837 L2.3630109,4.10057986 L2.56919529,3.5644837 L2.81096317,4.10057986 L3.05925429,4.1004837 L3.21892249,3.51687748 L2.74825429,3.10057986 L2.98125429,3.1004837 L2.56993589,2.80464732 Z M4.56993589,2.80464732 L4.14425429,3.1004837 L4.33502628,3.10057986 L3.92325766,3.51687748 L4.06425429,4.1004837 L4.3630109,4.10057986 L4.56919529,3.5644837 L4.81096317,4.10057986 L5.05925429,4.1004837 L5.21892249,3.51687748 L4.74825429,3.10057986 L4.98125429,3.1004837 L4.56993589,2.80464732 Z M5.56993589,1.80464732 L5.14425429,2.1004837 L5.33502628,2.10057986 L4.92325766,2.51687748 L5.06425429,3.1004837 L5.3630109,3.10057986 L5.56919529,2.5644837 L5.81096317,3.10057986 L6.05925429,3.1004837 L6.21892249,2.51687748 L5.74825429,2.10057986 L5.98125429,2.1004837 L5.56993589,1.80464732 Z M3.56993589,1.80464732 L3.14425429,2.1004837 L3.33502628,2.10057986 L2.92325766,2.51687748 L3.06425429,3.1004837 L3.3630109,3.10057986 L3.56919529,2.5644837 L3.81096317,3.10057986 L4.05925429,3.1004837 L4.21892249,2.51687748 L3.74825429,2.10057986 L3.98125429,2.1004837 L3.56993589,1.80464732 Z" id="Combined-Shape" fill="#F7FCFF" mask="url(#mask-2)"></path>
        </g>
    </g>
</svg>