<svg width="16px" height="16px" viewBox="0 0 16 16" version="1.1" xmlns="http://www.w3.org/2000/svg" xmlns:xlink="http://www.w3.org/1999/xlink">
  <g stroke="none" stroke-width="1" fill="none" fill-rule="evenodd">
    <g transform="translate(-70.000000, -619.000000)">
      <g transform="translate(50.000000, 602.000000)">
        <g transform="translate(20.000000, 17.000000)">
          <path d="M7.00296986,1.74480274 C7.5536144,0.781174797 8.44151008,0.772642642 8.99703014,1.74480274 L15.0029699,12.2551973 C15.5536144,13.2188252 15.1054862,14 14.0059397,14 L1.99406028,14 C0.892771196,14 0.441510081,13.2273574 0.997030139,12.2551973 L7.00296986,1.74480274 Z" fill="#F1C40F"></path>
          <path d="M7,5 C7,4.44771525 7.44771525,4 8,4 C8.55228475,4 9,4.44771525 9,5 L9,8 C9,8.55228475 8.55228475,9 8,9 C7.44771525,9 7,8.55228475 7,8 L7,5 Z M8,12 C7.44771525,12 7,11.5522847 7,11 C7,10.4477153 7.44771525,10 8,10 C8.55228475,10 9,10.4477153 9,11 C9,11.5522847 8.55228475,12 8,12 Z" fill="#FFFFFF"></path>
        </g>
      </g>
    </g>
  </g>
</svg>
