<?xml version="1.0" encoding="UTF-8"?>
<svg width="16px" height="16px" viewBox="0 0 16 16" version="1.1" xmlns="http://www.w3.org/2000/svg" xmlns:xlink="http://www.w3.org/1999/xlink">
  <g stroke="none" stroke-width="1" fill="none" fill-rule="evenodd">
    <g transform="translate(-1272.000000, -346.000000)" fill="#777B7D" fill-rule="nonzero">
      <g transform="translate(128.000000, 331.000000)">
        <g transform="translate(1144.000000, 15.000000)">
          <path d="M8,9.34616474 L3.62496459,13.7212002 C3.25323146,14.0929333 2.65053298,14.0929333 2.27879985,13.7212002 C1.90706672,13.349467 1.90706672,12.7467685 2.27879985,12.3750354 L6.65383526,8 L2.27879985,3.62496459 C1.90706672,3.25323146 1.90706672,2.65053298 2.27879985,2.27879985 C2.65053298,1.90706672 3.25323146,1.90706672 3.62496459,2.27879985 L8,6.65383526 L12.3750354,2.27879985 C12.7467685,1.90706672 13.349467,1.90706672 13.7212002,2.27879985 C14.0929333,2.65053298 14.0929333,3.25323146 13.7212002,3.62496459 L9.34616474,8 L13.7212002,12.3750354 C14.0929333,12.7467685 14.0929333,13.349467 13.7212002,13.7212002 C13.349467,14.0929333 12.7467685,14.0929333 12.3750354,13.7212002 L8,9.34616474 Z"></path>
        </g>
      </g>
    </g>
  </g>
</svg>
