<?xml version="1.0" encoding="UTF-8"?>
<svg width="16px" height="16px" viewBox="0 0 16 16" version="1.1" xmlns="http://www.w3.org/2000/svg" xmlns:xlink="http://www.w3.org/1999/xlink">
  <g stroke="none" stroke-width="1" fill="none" fill-rule="evenodd">
    <g transform="translate(-1296.000000, -1371.000000)" fill="#777B7D">
      <g transform="translate(1162.000000, 1369.000000)">
        <path d="M148,16 L148,15 C148,14.4477153 148.447715,14 149,14 C149.552285,14 150,14.4477153 150,15 L150,17 C150,17.5522847 149.552285,18 149,18 L135,18 C134.447715,18 134,17.5522847 134,17 L134,15 C134,14.4477153 134.447715,14 135,14 C135.552285,14 136,14.4477153 136,15 L136,16 L148,16 Z M143,10.5873734 L145.29448,8.29289322 C145.685004,7.90236893 146.318169,7.90236893 146.708694,8.29289322 C147.099218,8.68341751 147.099218,9.31658249 146.708694,9.70710678 L142.707107,13.7086937 C142.316582,14.099218 141.683418,14.099218 141.292893,13.7086937 C141.281563,13.6973639 141.270562,13.6858299 141.25989,13.6741036 L137.291306,9.70551987 C136.900782,9.31499558 136.900782,8.6818306 137.291306,8.2913063 C137.681831,7.90078201 138.314996,7.90078201 138.70552,8.2913063 L141,10.5857864 L141,3 C141,2.44771525 141.447715,2 142,2 C142.552285,2 143,2.44771525 143,3 L143,10.5873734 Z"></path>
      </g>
    </g>
  </g>
</svg>
