<?xml version="1.0" encoding="UTF-8"?>
<svg width="16px" height="16px" viewBox="0 0 16 16" version="1.1" xmlns="http://www.w3.org/2000/svg" xmlns:xlink="http://www.w3.org/1999/xlink">
  <g stroke="none" stroke-width="1" fill="none" fill-rule="evenodd">
    <g transform="translate(-460.000000, -450.000000)">
      <g transform="translate(128.000000, 361.000000)">
        <g transform="translate(0.000000, 69.000000)">
          <g transform="translate(332.000000, 20.000000)">
            <rect stroke="#B7C1C4" x="0.5" y="0.5" width="15" height="15" rx="7.5"></rect>
            <path d="M8.46435547,9.92431641 L7.09472656,9.92431641 C7.09114582,9.72737532 7.08935547,9.60742209 7.08935547,9.56445312 C7.08935547,9.12044049 7.16275968,8.75520977 7.30957031,8.46875 C7.45638094,8.18229023 7.7499978,7.86002783 8.19042969,7.50195312 C8.63086158,7.14387842 8.89404254,6.909343 8.97998047,6.79833984 C9.11246811,6.62288324 9.17871094,6.4295258 9.17871094,6.21826172 C9.17871094,5.92464046 9.06144323,5.67309675 8.8269043,5.46362305 C8.59236536,5.25414934 8.27636917,5.14941406 7.87890625,5.14941406 C7.49576631,5.14941406 7.17529426,5.25862521 6.91748047,5.47705078 C6.65966668,5.69547635 6.48242236,6.02848083 6.38574219,6.47607422 L5,6.30419922 C5.03938822,5.66324549 5.31241609,5.1189801 5.8190918,4.67138672 C6.32576751,4.22379333 6.9908813,4 7.81445312,4 C8.68099392,4 9.37027739,4.22647885 9.88232422,4.67944336 C10.394371,5.13240786 10.6503906,5.65966496 10.6503906,6.26123047 C10.6503906,6.59423995 10.5563974,6.90934096 10.3684082,7.20654297 C10.180419,7.50374498 9.77848615,7.90836333 9.16259766,8.42041016 C8.84391117,8.68538544 8.64607786,8.89843669 8.5690918,9.05957031 C8.49210573,9.22070393 8.45719397,9.50894975 8.46435547,9.92431641 Z M7.09472656,11.9545898 L7.09472656,10.4453125 L8.60400391,10.4453125 L8.60400391,11.9545898 L7.09472656,11.9545898 Z" fill="#727878"></path>
          </g>
        </g>
      </g>
    </g>
  </g>
</svg>
