<?xml version="1.0" encoding="UTF-8"?>
<svg width="12px" height="12px" viewBox="0 0 12 12" version="1.1" xmlns="http://www.w3.org/2000/svg" xmlns:xlink="http://www.w3.org/1999/xlink">
  <g stroke="none" stroke-width="1" fill="none" fill-rule="evenodd">
    <path d="M6.99067926,2 C6.99067926,1.74407768 7.08831033,1.48815536 7.28357248,1.29289322 C7.67409677,0.902368927 8.30726175,0.902368927 8.69778604,1.29289322 L11.697786,4.29289322 C12.0883103,4.68341751 12.0883103,5.31658249 11.697786,5.70710678 C11.3072617,6.09763107 10.6740968,6.09763107 10.2835725,5.70710678 L8.99067926,4.41421356 L8.99067926,10 C8.99067926,10.5522847 8.54296401,11 7.99067926,11 C7.43839451,11 6.99067926,10.5522847 6.99067926,10 L6.99067926,2 Z" id="order-arrow-up" fill="#B7C1C4" fill-rule="nonzero"></path>
    <path d="M4.99067926,9.8633824 C5.0317259,10.162684 4.93720174,10.4770118 4.70710678,10.7071068 C4.51066385,10.9035497 4.25282488,11.0011772 3.99535719,10.9999893 C3.99379872,10.9999964 3.99223941,11 3.99067926,11 C3.67311345,11 3.39012139,10.8519722 3.20693957,10.6211531 L0.292893219,7.70710678 C-0.0976310729,7.31658249 -0.0976310729,6.68341751 0.292893219,6.29289322 C0.683417511,5.90236893 1.31658249,5.90236893 1.70710678,6.29289322 L2.99067926,7.5764657 L2.99067926,2 C2.99067926,1.44771525 3.43839451,1 3.99067926,1 C4.54296401,1 4.99067926,1.44771525 4.99067926,2 L4.99067926,9.8633824 Z" id="order-arrow-down" fill="#B7C1C4" fill-rule="nonzero"></path>
  </g>
</svg>
