<?xml version="1.0"?>
<svg xmlns="http://www.w3.org/2000/svg" xmlns:xlink="http://www.w3.org/1999/xlink" xmlns:svgjs="http://svgjs.com/svgjs" version="1.1" width="512" height="512" x="0" y="0" viewBox="0 0 512 512" style="enable-background:new 0 0 512 512" xml:space="preserve" class=""><g><path xmlns="http://www.w3.org/2000/svg" d="m223.96 402.62c-1.4 48.05-42.73 85.38-90.8 85.38h-18.32c-44.57 0-83.36-32.1-89.87-75.08a83.164 83.164 0 0 1 -.93-10.3 87.638 87.638 0 0 1 17.72-55.63c14.66-19.36 17.99-44.35 14.69-68.41a48.035 48.035 0 0 1 -.39-8.93c1.23-25.91 23.92-45.65 49.86-45.65h36.16a51.131 51.131 0 0 1 37.54 16.42 46.387 46.387 0 0 1 12.32 29.23 48.035 48.035 0 0 1 -.39 8.93c-3.3 24.06.03 49.05 14.69 68.41a87.638 87.638 0 0 1 17.72 55.63z" fill="#ffb531" data-original="#ffb531" style=""/><path xmlns="http://www.w3.org/2000/svg" d="m223.96 402.62c-1.4 48.05-42.73 85.38-90.8 85.38h-18.32c-44.57 0-83.36-32.1-89.87-75.08 57.59-28.53 119.27-79.92 154.65-172.5a46.387 46.387 0 0 1 12.32 29.23 48.035 48.035 0 0 1 -.39 8.93c-3.3 24.06.03 49.05 14.69 68.41a87.638 87.638 0 0 1 17.72 55.63z" fill="#ffa912" data-original="#ffa912" style=""/><path xmlns="http://www.w3.org/2000/svg" d="m104 32h40v304h-40z" fill="#8f4d2e" data-original="#8f4d2e" style=""/><circle xmlns="http://www.w3.org/2000/svg" cx="124" cy="324" fill="#6e3c24" r="36" data-original="#6e3c24" style=""/><path xmlns="http://www.w3.org/2000/svg" d="m144 112h-40l-8-24v-64h56v64z" fill="#95573a" data-original="#95573a" style=""/><g xmlns="http://www.w3.org/2000/svg" fill="#ffb531"><path d="m152 32h24v16h-24z" fill="#ffb531" data-original="#ffb531" style=""/><path d="m152 64h24v16h-24z" fill="#ffb531" data-original="#ffb531" style=""/><path d="m72 32h24v16h-24z" fill="#ffb531" data-original="#ffb531" style=""/><path d="m72 64h24v16h-24z" fill="#ffb531" data-original="#ffb531" style=""/></g><path xmlns="http://www.w3.org/2000/svg" d="m88 408h72v32h-72z" fill="#95573a" data-original="#95573a" style=""/><path xmlns="http://www.w3.org/2000/svg" d="m88 424h72v16h-72z" fill="#8f4d2e" data-original="#8f4d2e" style=""/><path xmlns="http://www.w3.org/2000/svg" d="m455.372 313.882-88.847-16.658a8 8 0 0 1 -6.525-7.864v-73.36h-80v73.36a8 8 0 0 1 -6.526 7.864l-88.845 16.658a40 40 0 0 0 -32.629 39.318v102.8h336v-102.8a40 40 0 0 0 -32.628-39.318z" fill="#fec9a3" data-original="#fec9a3" style="" class=""/><path xmlns="http://www.w3.org/2000/svg" d="m488 353.29v102.71h-336v-102.71a39.995 39.995 0 0 1 32.74-39.33l70.97-13.1 4.98 20.49a61.028 61.028 0 0 0 118.62 0l4.98-20.49 58.38 10.78 12.59 2.32a39.995 39.995 0 0 1 32.74 39.33z" fill="#4d5e78" data-original="#4d5e78" style=""/><path xmlns="http://www.w3.org/2000/svg" d="m488 353.29v102.71h-234.01c65.05-24.72 138.81-68.18 188.68-144.36l12.59 2.32a39.995 39.995 0 0 1 32.74 39.33z" fill="#44546c" data-original="#44546c" style=""/><path xmlns="http://www.w3.org/2000/svg" d="m360 275.856v-59.856h-80v59.856a71.963 71.963 0 0 0 80 0z" fill="#feb784" data-original="#feb784" style=""/><path xmlns="http://www.w3.org/2000/svg" d="m400 144h-8v48h8a24 24 0 0 0 0-48z" fill="#feb784" data-original="#feb784" style=""/><path xmlns="http://www.w3.org/2000/svg" d="m240.4 144h-.4a24 24 0 0 0 0 48h8v-48z" fill="#feb784" data-original="#feb784" style=""/><path xmlns="http://www.w3.org/2000/svg" d="m392 136v64a72.006 72.006 0 0 1 -72 72c-1.16 0-2.32-.03-3.46-.08a72.009 72.009 0 0 1 -68.54-71.92v-64a72 72 0 0 1 71-71.99c.33-.01.67-.01 1-.01a72.006 72.006 0 0 1 72 72z" fill="#fec9a3" data-original="#fec9a3" style="" class=""/><path xmlns="http://www.w3.org/2000/svg" d="m392 136v64a72.006 72.006 0 0 1 -72 72c-1.16 0-2.32-.03-3.46-.08a71.975 71.975 0 0 0 40.16-64.59v-80a72.1 72.1 0 0 0 -37.7-63.32c.33-.01.67-.01 1-.01a72.006 72.006 0 0 1 72 72z" fill="#fec093" data-original="#fec093" style=""/><path xmlns="http://www.w3.org/2000/svg" d="m248 136h144v16h-144z" fill="#fec093" data-original="#fec093" style=""/><circle xmlns="http://www.w3.org/2000/svg" cx="284" cy="163.996" fill="#7a432a" r="12" data-original="#7a432a" style=""/><circle xmlns="http://www.w3.org/2000/svg" cx="356" cy="163.996" fill="#7a432a" r="12" data-original="#7a432a" style=""/><path xmlns="http://www.w3.org/2000/svg" d="m285.8 116.613a174.36 174.36 0 0 0 68.4 0l5.8-1.159 32 36.546v-16a72 72 0 0 0 -144 0v16l32-36.546z" fill="#7a3b1d" data-original="#7a3b1d" style=""/><path xmlns="http://www.w3.org/2000/svg" d="m339.969 201.09c-7.531 4.39-18.125 6.91-29.078 6.91h-14.891v16h14.891c13.9 0 27.086-3.227 37.14-9.09z" fill="#f7a468" data-original="#f7a468" style=""/><path xmlns="http://www.w3.org/2000/svg" d="m400 416 48-32h40v72h-32l-24 16h-48l-160 16h-48a24 24 0 0 1 -24-24v-48z" fill="#feb784" data-original="#feb784" style=""/><path xmlns="http://www.w3.org/2000/svg" d="m240 416-48-32h-40v72h32l24 16h48l160 16h48a24 24 0 0 0 24-24v-48z" fill="#fec9a3" data-original="#fec9a3" style="" class=""/><path xmlns="http://www.w3.org/2000/svg" d="m392 128h-144s.1-5.78.29-14.18c.07-2.99.16-6.31.25-9.82.28-10.24.66-22.09 1.14-32 .42-8.49.91-15.56 1.48-18.98a34.732 34.732 0 0 1 63.15-13.56 6.845 6.845 0 0 0 11.38 0 34.742 34.742 0 0 1 42.16-12.83 35.137 35.137 0 0 1 4.3 2.14 34.746 34.746 0 0 1 16.69 24.25q1.575 9.45 2.36 18.98a.17.17 0 0 1 .01.07c.28 3.31.48 18.31.61 31.93.12 12.58.18 24 .18 24z" fill="#7a432a" data-original="#7a432a" style=""/><path xmlns="http://www.w3.org/2000/svg" d="m392 128h-144s.1-5.78.29-14.18c41.46-11.41 91.99-35.67 119.56-87.19a35.137 35.137 0 0 1 4.3 2.14 34.746 34.746 0 0 1 16.69 24.25q1.575 9.45 2.36 18.98a.17.17 0 0 1 .01.07c.28 3.31.48 18.31.61 31.93.12 12.58.18 24 .18 24z" fill="#6e3c24" data-original="#6e3c24" style=""/><path xmlns="http://www.w3.org/2000/svg" d="m216 104h208a0 0 0 0 1 0 0 32 32 0 0 1 -32 32h-144a32 32 0 0 1 -32-32 0 0 0 0 1 0 0z" fill="#7a432a" data-original="#7a432a" style=""/><path xmlns="http://www.w3.org/2000/svg" d="m391.82 104h-143.28c.28-10.24.66-22.09 1.14-32h141.52a.17.17 0 0 1 .01.07c.28 3.31.48 18.31.61 31.93z" fill="#95573a" data-original="#95573a" style=""/><path xmlns="http://www.w3.org/2000/svg" d="m367.851 104a157.708 157.708 0 0 1 -43.081 32h67.23a32 32 0 0 0 32-32z" fill="#6e3c24" data-original="#6e3c24" style=""/><path xmlns="http://www.w3.org/2000/svg" d="m391.82 104h-39.99v-32h39.37a.17.17 0 0 1 .01.07c.28 3.31.48 18.31.61 31.93z" fill="#8f4d2e" data-original="#8f4d2e" style=""/></g></svg>
