<svg xmlns="http://www.w3.org/2000/svg" xmlns:xlink="http://www.w3.org/1999/xlink" version="1.1" id="Layer_1" x="0px" y="0px" viewBox="0 0 125 125" style="enable-background:new 0 0 125 125;" xml:space="preserve">
<style type="text/css">
	.st0{fill-rule:evenodd;clip-rule:evenodd;fill:rgb(101, 90, 163, .8);}
</style>
<g>
	<path class="st0" d="M108.2,32.6c-4.3,0-8.5-1.7-11.5-4.8c-3-3-4.8-7.2-4.8-11.5c0-4.3,1.7-8.5,4.8-11.5c3-3,7.2-4.8,11.5-4.8   s8.5,1.7,11.5,4.8c3,3,4.8,7.2,4.8,11.5c0,4.3-1.7,8.5-4.8,11.5C116.7,30.9,112.5,32.6,108.2,32.6z"/>
	<path class="st0" d="M16.8,32.6c-4.3,0-8.5-1.7-11.5-4.8c-3-3-4.8-7.2-4.8-11.5c0-4.3,1.7-8.5,4.8-11.5c3-3,7.2-4.8,11.5-4.8   c4.3,0,8.5,1.7,11.5,4.8c3,3,4.8,7.2,4.8,11.5c0,4.3-1.7,8.5-4.8,11.5C25.3,30.9,21.1,32.6,16.8,32.6z"/>
	<path class="st0" d="M62.5,125c-34.2,0-62-27.8-62-62c0-9,7.3-16.3,16.3-16.3c9,0,16.3,7.3,16.3,16.3c0,16.2,13.2,29.4,29.4,29.4   S91.9,79.2,91.9,63c0-9,7.3-16.3,16.3-16.3S124.5,54,124.5,63C124.5,97.2,96.7,125,62.5,125z"/>
</g>
</svg>