<?xml version="1.0"?>
<svg xmlns="http://www.w3.org/2000/svg" xmlns:xlink="http://www.w3.org/1999/xlink" xmlns:svgjs="http://svgjs.com/svgjs" version="1.1" width="50" height="50" x="0" y="0" viewBox="0 0 512 512" style="enable-background:new 0 0 512 512" xml:space="preserve" class=""><g>
<g xmlns="http://www.w3.org/2000/svg">
	<path style="" d="M373.333,0H138.667c-17.673,0-32,14.327-32,32s14.327,32,32,32h234.667c17.673,0,32-14.327,32-32   S391.006,0,373.333,0z" fill="#655aa3" data-original="#455a64" class=""/>
	<path style="" d="M373.333,469.333H138.667c-5.891,0-10.667-4.776-10.667-10.667v-89.28   c-0.001-27.687,11.951-54.026,32.789-72.256l37.824-33.109c4.43-3.883,4.873-10.622,0.99-15.052   c-0.308-0.351-0.639-0.682-0.99-0.99l-37.824-33.109c-20.838-18.23-32.79-44.569-32.789-72.256v-89.28   c0-5.891,4.776-10.667,10.667-10.667h234.667c5.891,0,10.667,4.776,10.667,10.667v89.28c0.001,27.687-11.951,54.026-32.789,72.256   l-37.824,33.109c-4.43,3.883-4.873,10.622-0.99,15.052c0.308,0.351,0.639,0.682,0.99,0.99l37.824,33.109   c20.838,18.23,32.79,44.569,32.789,72.256v89.28C384,464.558,379.224,469.333,373.333,469.333z" fill="#655aa3" data-original="#455a64" class=""/>
</g>
<path xmlns="http://www.w3.org/2000/svg" style="" d="M149.333,448h213.333v-78.613c-0.026-21.547-9.359-42.033-25.6-56.192l-37.824-33.109  c-13.302-11.636-14.652-31.852-3.016-45.154c0.937-1.071,1.945-2.079,3.016-3.016l37.824-33.109  c16.241-14.159,25.574-34.645,25.6-56.192V64H149.333v78.613c0.026,21.547,9.359,42.033,25.6,56.192l37.824,33.109  c13.296,11.643,14.636,31.86,2.994,45.156c-0.931,1.063-1.931,2.063-2.994,2.994l-37.824,33.131  c-16.241,14.159-25.574,34.645-25.6,56.192V448z" fill="#eceff1" data-original="#eceff1" class=""/>
<path xmlns="http://www.w3.org/2000/svg" style="" d="M319.189,177.259c-1.649-3.989-5.539-6.591-9.856-6.592H202.667  c-5.891-0.011-10.675,4.757-10.686,10.648c-0.005,2.84,1.123,5.565,3.134,7.571l53.333,53.333c4.165,4.164,10.917,4.164,15.083,0  l53.333-53.333C319.92,185.837,320.838,181.248,319.189,177.259z" fill="#1abc9c" data-original="#ffc107" class=""/>
<path xmlns="http://www.w3.org/2000/svg" style="" d="M373.333,448H138.667c-17.673,0-32,14.327-32,32s14.327,32,32,32h234.667c17.673,0,32-14.327,32-32  S391.006,448,373.333,448z" fill="#655aa3" data-original="#455a64" class=""/>
<path xmlns="http://www.w3.org/2000/svg" style="" d="M263.168,333.44c-4.214-3.815-10.678-3.655-14.699,0.363l-99.136,99.115V448h213.333v-24.107  L263.168,333.44z" fill="#1abc9c" data-original="#ffc107" class=""/>
<g xmlns="http://www.w3.org/2000/svg">
</g>
<g xmlns="http://www.w3.org/2000/svg">
</g>
<g xmlns="http://www.w3.org/2000/svg">
</g>
<g xmlns="http://www.w3.org/2000/svg">
</g>
<g xmlns="http://www.w3.org/2000/svg">
</g>
<g xmlns="http://www.w3.org/2000/svg">
</g>
<g xmlns="http://www.w3.org/2000/svg">
</g>
<g xmlns="http://www.w3.org/2000/svg">
</g>
<g xmlns="http://www.w3.org/2000/svg">
</g>
<g xmlns="http://www.w3.org/2000/svg">
</g>
<g xmlns="http://www.w3.org/2000/svg">
</g>
<g xmlns="http://www.w3.org/2000/svg">
</g>
<g xmlns="http://www.w3.org/2000/svg">
</g>
<g xmlns="http://www.w3.org/2000/svg">
</g>
<g xmlns="http://www.w3.org/2000/svg">
</g>
</g></svg>
